# xmcd CD database file
# Copyright (C) 1995-1998 Ti Kan
#
# Track frame offsets:
#	150
#	21570
#	33513
#	47080
#	60665
#	75635
#	92038
#	105813
#	122075
#	138820
#	150220
#	160173
#	174105
#
# Disc length: 2526 seconds
#
# Revision: 1
# Processed by: cddbd v1.5PL3 Copyright (c) Steve Scherf et al.
# Submitted via: CDex 1.30Release
#
DISCID=9009dc0d
DTITLE=Tex Mex - Sonrisas de Texas 1
DYEAR=1993
DGENRE=Country
TTITLE0=Mingo Salvidar y u Tremendos Cuatro Espadas - Ruedo de Fuego
TTITLE1=Flaco Jiminez - Toma Esta Flor
TTITLE2=Los Hermanos Barron - La Mujer de Juan
TTITLE3=Ruben Vela y su Conjunto - Vencido
TTITLE4=Santiago Jiminez Jr. - La Otra Modesta
TTITLE5=Steve Jordan - La Piedrecita
TTITLE6=Valoria Langoria - Los Illegalos
TTITLE7=Tish Hinojosa - Corazon Viajero
TTITLE8=Los Cachoros de Juan Villareal - Me Voy, Me Voy
TTITLE9=Roberto Pulido y los Classicos - Una Rosa Para Mia Chica
TTITLE10=Los Dos Gilbertos - Ru-Gil
TTITLE11=Tony de las Rosa - Valentin de la Sierra
TTITLE12=Brave Combo - Lorianna
EXTD=Munich Records MSACD007 Sampler ID3G:   2
EXTT0=
EXTT1=
EXTT2=
EXTT3=
EXTT4=
EXTT5=
EXTT6=
EXTT7=
EXTT8=
EXTT9=
EXTT10=
EXTT11=
EXTT12=
PLAYORDER=
